<?xml version="1.0" encoding="utf-8"?>
<!-- 
    Original Icon by Tweemoji (https://twemoji.twitter.com/)
    Flag of US and UK
    Modified by NORXND
    Licensed under CC-BY 4.0 (https://creativecommons.org/licenses/by/4.0/)
-->
<svg version="1.1" xmlns="http://www.w3.org/2000/svg" xmlns:xlink="http://www.w3.org/1999/xlink" viewBox="0 0 16 16" xml:space="preserve">
<style type="text/css">
	.st0{fill:#B22334;}
	.st1{fill:#EEEEEE;}
	.st2{fill:#3C3B6E;}
	.st3{fill:#FFFFFF;}
	.st4{fill:#00247D;}
	.st5{fill:#CF1B2B;}
</style>
<g>
	<path class="st0" d="M15.8,3.1c-0.3-0.5-0.9-0.9-1.5-0.9H8v0.9H15.8z M0,11.1h16V12H0V11.1z M8,7.6h8v0.9H8V7.6z M8,5.8h8v0.9H8
		V5.8z M0,9.3h16v0.9H0V9.3z M1.8,13.8h12.5c0.7,0,1.2-0.4,1.5-0.9H0.2C0.5,13.4,1.1,13.8,1.8,13.8z M8,4h8v0.9H8V4z"/>
	<path class="st1" d="M0,12.3c0,0,0,0.1,0,0.1c0,0,0,0.1,0,0.1c0,0.1,0.1,0.2,0.1,0.3l0,0h15.5l0,0c0.1-0.1,0.1-0.2,0.1-0.3
		c0,0,0-0.1,0-0.1c0,0,0-0.1,0-0.1c0-0.1,0-0.2,0-0.3H0C0,12.1,0,12.2,0,12.3z M0,10.2h16v0.9H0V10.2z M0,8.4v0.9h16V8.4H8H0z
		 M8,6.7h8v0.9H8V6.7z M8,4.9h8v0.9H8V4.9z M0,4c0-0.1,0-0.2,0-0.3C0,3.8,0,3.9,0,4z M0.2,3.1L0.2,3.1L0.2,3.1z M0,3.6
		c0,0,0-0.1,0-0.1C0.1,3.5,0.1,3.5,0,3.6z M8,4h8c0-0.1,0-0.2,0-0.3c0,0,0-0.1,0-0.1c0,0,0-0.1,0-0.1c0-0.1-0.1-0.2-0.1-0.3
		c0,0,0,0,0,0H8V4z"/>
	<path class="st2" d="M8,2.2H1.8C0.8,2.2,0,3,0,4v4.5h8V2.2z"/>
	<path class="st3" d="M0.9,3.4l0.3,0.2L1,4l0.3-0.2L1.6,4L1.5,3.6l0.3-0.2H1.4L1.3,3.1L1.2,3.4H0.9z M1.8,4.3L2,4.5L1.9,4.8l0.3-0.2
		l0.3,0.2L2.4,4.5l0.3-0.2H2.3L2.2,4L2.1,4.3H1.8z M3.6,4.3l0.3,0.2L3.7,4.8L4,4.6l0.3,0.2L4.2,4.5l0.3-0.2H4.1L4,4L3.9,4.3H3.6z
		 M5.3,4.3l0.3,0.2L5.5,4.8l0.3-0.2L6,4.8L5.9,4.5l0.3-0.2H5.9L5.8,4L5.7,4.3H5.3z M1.8,6.1L2,6.3L1.9,6.6l0.3-0.2l0.3,0.2L2.4,6.3
		l0.3-0.2H2.3L2.2,5.8L2.1,6.1H1.8z M3.6,6.1l0.3,0.2L3.7,6.6L4,6.4l0.3,0.2L4.2,6.3l0.3-0.2H4.1L4,5.8L3.9,6.1H3.6z M5.3,6.1
		l0.3,0.2L5.5,6.6l0.3-0.2L6,6.6L5.9,6.3l0.3-0.2H5.9L5.8,5.8L5.7,6.1H5.3z M2.7,3.4l0.3,0.2L2.8,4l0.3-0.2L3.4,4L3.3,3.6l0.3-0.2
		H3.2L3.1,3.1L3,3.4H2.7z M4.4,3.4l0.3,0.2L4.6,4l0.3-0.2L5.2,4L5.1,3.6l0.3-0.2H5L4.9,3.1L4.8,3.4H4.4z M6.2,3.4l0.3,0.2L6.4,4
		l0.3-0.2L6.9,4L6.8,3.6l0.3-0.2H6.8L6.7,3.1L6.6,3.4H6.2z M0.9,5.2l0.3,0.2L1,5.7l0.3-0.2l0.3,0.2L1.5,5.4l0.3-0.2H1.4L1.3,4.9
		L1.2,5.2H0.9z M2.8,5.7l0.3-0.2l0.3,0.2L3.3,5.4l0.3-0.2H3.2L3.1,4.9L3,5.2H2.7l0.3,0.2L2.8,5.7z M4.4,5.2l0.3,0.2L4.6,5.7l0.3-0.2
		l0.3,0.2L5.1,5.4l0.3-0.2H5L4.9,4.9L4.8,5.2H4.4z M6.2,5.2l0.3,0.2L6.4,5.7l0.3-0.2l0.3,0.2L6.8,5.4l0.3-0.2H6.8L6.7,4.9L6.6,5.2
		H6.2z M0.9,7l0.3,0.2L1,7.5l0.3-0.2l0.3,0.2L1.5,7.2L1.8,7H1.4L1.3,6.7L1.2,7H0.9z M2.8,7.5l0.3-0.2l0.3,0.2L3.3,7.2L3.5,7H3.2
		L3.1,6.7L3,7H2.7l0.3,0.2L2.8,7.5z M4.4,7l0.3,0.2L4.6,7.5l0.3-0.2l0.3,0.2L5.1,7.2L5.3,7H5L4.9,6.7L4.8,7H4.4z M6.2,7l0.3,0.2
		L6.4,7.5l0.3-0.2l0.3,0.2L6.8,7.2L7.1,7H6.8L6.7,6.7L6.6,7H6.2z"/>
	<g>
		<polygon class="st4" points="13.9,2.2 10.2,2.2 10.2,4.8 		"/>
		<polygon class="st4" points="16,5.8 16,4 13.5,5.8 		"/>
		<path class="st5" d="M10.2,5.8h1l4.3-3c-0.2-0.2-0.5-0.4-0.9-0.5l-4.4,3.1V5.8z"/>
		<path class="st1" d="M16,4c0-0.5-0.2-0.9-0.5-1.2l-4.3,3h-1V5.4l4.4-3.1c-0.1,0-0.3-0.1-0.4-0.1h-0.3l-3.7,2.6V2.2H9.3v4.5H16V5.8
			h-2.5L16,4L16,4z"/>
		<g>
			<polygon class="st4" points="10.2,11.2 10.2,13.8 13.9,13.8 			"/>
			<polygon class="st4" points="16,12 16,10.2 13.5,10.2 			"/>
			<path class="st5" d="M11.2,10.2l4.3,3c0.2-0.2,0.4-0.5,0.4-0.8l-3.2-2.2H11.2z"/>
			<path class="st1" d="M16,9.3H9.3v4.5h0.9v-2.6l3.7,2.6h0.3c0.5,0,0.9-0.2,1.3-0.5l-4.3-3h1.6l3.2,2.2c0-0.1,0.1-0.3,0.1-0.5v0
				l-2.5-1.8H16V9.3z"/>
			<path class="st5" d="M8,13.8h1.3V9.3H16V6.7H9.3V2.2H8"/>
		</g>
	</g>
</g>
</svg>
