<?xml version="1.0" encoding="utf-8"?>
<!-- 
    Original Icon by Tweemoji (https://twemoji.twitter.com/)
    Sun
    Modified by NORXND
    Licensed under CC-BY 4.0 (https://creativecommons.org/licenses/by/4.0/)
-->
<svg version="1.1" xmlns="http://www.w3.org/2000/svg" xmlns:xlink="http://www.w3.org/1999/xlink" viewBox="0 0 16 16" xml:space="preserve">
<style type="text/css">
	.st0{fill:#FFAC33;}
</style>
<path class="st0" d="M7.1,0.9c0,0,0-0.9,0.9-0.9s0.9,0.9,0.9,0.9v0.9c0,0,0,0.9-0.9,0.9S7.1,1.8,7.1,1.8V0.9z M15.1,7.1
	c0,0,0.9,0,0.9,0.9s-0.9,0.9-0.9,0.9h-0.9c0,0-0.9,0-0.9-0.9s0.9-0.9,0.9-0.9H15.1z M1.8,7.1c0,0,0.9,0,0.9,0.9S1.8,8.9,1.8,8.9H0.9
	c0,0-0.9,0-0.9-0.9s0.9-0.9,0.9-0.9H1.8z M4.1,3.2c0,0,0.6,0.6,0,1.3c-0.6,0.6-1.3,0-1.3,0L2.2,3.9c0,0-0.6-0.6,0-1.3
	c0.6-0.6,1.3,0,1.3,0L4.1,3.2z M13.4,12.6c0,0,0.6,0.6,0,1.3c-0.6,0.6-1.3,0-1.3,0l-0.6-0.6c0,0-0.6-0.6,0-1.3c0.6-0.6,1.3,0,1.3,0
	S13.4,12.6,13.4,12.6z M13.2,4.5c0,0-0.6,0.6-1.3,0c-0.6-0.6,0-1.3,0-1.3l0.6-0.6c0,0,0.6-0.6,1.3,0s0,1.3,0,1.3S13.2,4.5,13.2,4.5z
	 M3.9,13.8c0,0-0.6,0.6-1.3,0c-0.6-0.6,0-1.3,0-1.3l0.6-0.6c0,0,0.6-0.6,1.3,0c0.6,0.6,0,1.3,0,1.3S3.9,13.8,3.9,13.8z M7.1,14.2
	c0,0,0-0.9,0.9-0.9s0.9,0.9,0.9,0.9v0.9c0,0,0,0.9-0.9,0.9s-0.9-0.9-0.9-0.9V14.2z"/>
<circle class="st0" cx="8" cy="8" r="4.4"/>
</svg>
